# xmcd
#
# Track frame offsets:
# 150
# 26232
# 59311
# 92480
# 136832
# 156976
# 192025
# 219671
# 248649
# 281873
# 302711
# 332002
#
# Disc length: 4770 seconds
#
# Revision: 0
# Processed by: cddbd v1.4PL0 Copyright (c) Steve Scherf et al.
# Submitted via: Audion 2.5.0 (http://www.panic.com/audion/)
#
DISCID=aa12a00c
DTITLE=mix2 - mix2
DYEAR=1900
DGENRE=
TTITLE0=1
TTITLE1=2
TTITLE2=3
TTITLE3=45
TTITLE4=5
TTITLE5=6
TTITLE6=7
TTITLE7=8
TTITLE8=9
TTITLE9=0
TTITLE10=DrunkenMonky "E"
TTITLE11=Rocco Drop the Bass
EXTD=
EXTT0=
EXTT1=
EXTT2=
EXTT3=
EXTT4=
EXTT5=
EXTT6=
EXTT7=
EXTT8=
EXTT9=
EXTT10=
EXTT11=
PLAYORDER=
